<svg width="51" height="51" viewBox="0 0 51 51" fill="none" xmlns="http://www.w3.org/2000/svg">
<path d="M41.079 49.9641H10.1204C9.48286 49.9641 8.84536 49.8445 8.24771 49.6055C7.68989 49.3664 7.17192 49.0078 6.73364 48.5695C6.29536 48.1313 5.93677 47.6133 5.69771 47.0555C5.45864 46.4578 5.33911 45.8602 5.33911 45.1828V12.9492C5.33911 12.3117 5.45864 11.6742 5.69771 11.0766C5.93677 10.5187 6.29536 10.0008 6.73364 9.5625C7.17192 9.12422 7.68989 8.76562 8.24771 8.52656C8.84536 8.2875 9.44302 8.16797 10.1204 8.16797H14.8219V10.5586H10.1204C8.80552 10.5586 7.72974 11.6344 7.72974 12.9492V45.1828C7.72974 46.4977 8.80552 47.5734 10.1204 47.5734H41.079C42.3938 47.5734 43.4696 46.4977 43.4696 45.1828V12.9492C43.4696 11.6344 42.3938 10.5586 41.079 10.5586H36.3774V8.16797H41.0391C41.6766 8.16797 42.3141 8.2875 42.9118 8.52656C43.4696 8.76562 43.9875 9.12422 44.4258 9.5625C44.8641 10.0008 45.2227 10.5187 45.4618 11.0766C45.7008 11.6742 45.8204 12.2719 45.8204 12.9492V45.1828C45.8204 45.8203 45.7008 46.4578 45.4618 47.0555C45.2227 47.6133 44.8641 48.1313 44.4258 48.5695C43.9875 49.0078 43.4696 49.3664 42.9118 49.6055C42.354 49.8445 41.7165 49.9641 41.079 49.9641Z" fill="#8391A1"/>
<path d="M37.493 15.3398H13.6664V7.61016C13.6664 5.97656 14.9813 4.62188 16.6547 4.62188H19.7227C20.8383 2.43047 23.0696 0.996094 25.5797 0.996094C28.0899 0.996094 30.3211 2.43047 31.4367 4.62188H34.5047C36.1383 4.62188 37.493 5.93672 37.493 7.61016V15.3398ZM16.0571 12.9492H35.1024V7.61016C35.1024 7.29141 34.8235 7.0125 34.5047 7.0125H29.8032L29.5242 6.21563C28.9266 4.54219 27.3727 3.42656 25.5797 3.42656C23.7867 3.42656 22.2328 4.54219 21.6352 6.21563L21.3563 7.0125H16.6547C16.336 7.0125 16.0571 7.29141 16.0571 7.61016V12.9492ZM21.5555 39.4453C21.2367 39.4453 20.9578 39.3258 20.7188 39.0867L12.5906 30.9586C12.3516 30.7195 12.2321 30.4406 12.2321 30.1219C12.2321 29.8031 12.3516 29.5242 12.5906 29.2852C12.8297 29.0461 13.1086 28.9266 13.4274 28.9266C13.7461 28.9266 14.025 29.0461 14.2641 29.2852L20.8383 35.8594C21.0375 36.0586 21.2766 36.1383 21.5156 36.1383C21.7547 36.1383 22.0336 36.0586 22.193 35.8594L36.8953 21.157C37.1344 20.918 37.4133 20.7984 37.7321 20.7984C38.0508 20.7984 38.3297 20.918 38.5688 21.157C39.0469 21.6352 39.0469 22.3523 38.5688 22.8305L22.3922 39.0867C22.1531 39.2859 21.8344 39.4453 21.5555 39.4453Z" fill="#8391A1"/>
</svg>
