<svg width="65" height="79" viewBox="0 0 65 79" fill="none" xmlns="http://www.w3.org/2000/svg">
<path fill-rule="evenodd" clip-rule="evenodd" d="M45.9127 0.104947C52.0661 -0.777215 57.5714 4.01442 57.5714 10.2522V15.383C61.9896 17.7266 65 22.3847 65 27.7485V65.0223C65 72.7421 58.7641 79 51.0714 79H13.9286C6.23603 79 0 72.7421 0 65.0223V12.839C0 12.8043 0.000631294 12.7698 0.00185701 12.7355C0.000631294 12.6818 0 12.628 0 12.5741C0 9.19613 2.47513 6.33219 5.8074 5.85448L45.9127 0.104947ZM5.57143 19.3619V65.0223C5.57143 69.6543 9.31305 73.4089 13.9286 73.4089H51.0714C55.6868 73.4089 59.4286 69.6543 59.4286 65.0223V27.7485C59.4286 23.1167 55.6868 19.3619 51.0714 19.3619H5.57143ZM6.76397 13.7708H52V10.2522C52 7.41685 49.4977 5.23883 46.7005 5.63982L6.59531 11.3894C6.00782 11.4736 5.57143 11.9785 5.57143 12.5741C5.57143 13.235 6.10536 13.7708 6.76397 13.7708ZM14.8571 38.9306C14.8571 37.3867 16.1044 36.135 17.6429 36.135H47.3571C48.8956 36.135 50.1429 37.3867 50.1429 38.9306C50.1429 40.4748 48.8956 41.7261 47.3571 41.7261H17.6429C16.1044 41.7261 14.8571 40.4748 14.8571 38.9306ZM14.8571 51.9764C14.8571 50.4325 16.1044 49.1809 17.6429 49.1809H38.0714C39.6099 49.1809 40.8571 50.4325 40.8571 51.9764C40.8571 53.5207 39.6099 54.772 38.0714 54.772H17.6429C16.1044 54.772 14.8571 53.5207 14.8571 51.9764Z" fill="white"/>
</svg>
