<svg width="41" height="46" viewBox="0 0 41 46" fill="none" xmlns="http://www.w3.org/2000/svg">
<path d="M27.4375 9H13.5625M39 44H36.6875M36.6875 44H4.3125M36.6875 44C36.6875 38.1429 33.8841 32.6462 29.1605 29.2417L20.5 23M4.3125 44H2M4.3125 44C4.3125 38.1429 7.1159 32.6462 11.8395 29.2417L20.5 23M20.5 23L29.1605 16.7582C33.8841 13.3538 36.6875 7.85718 36.6875 2M20.5 23L11.8395 16.7582C7.1159 13.3538 4.3125 7.85718 4.3125 2M39 2H36.6875M36.6875 2H4.3125M4.3125 2H2" stroke="#8391A1" stroke-width="3" stroke-linecap="round" stroke-linejoin="round"/>
</svg>
