<svg width="161" height="161" viewBox="0 0 161 161" fill="none" xmlns="http://www.w3.org/2000/svg">
<path d="M50.813 136.625L45.663 154H42.438L38.788 140.85L34.913 154L31.713 154.025L26.788 136.625H29.813L33.413 150.775L37.313 136.625H40.513L44.138 150.7L47.763 136.625H50.813ZM60.2886 140C61.3386 140 62.2719 140.225 63.0886 140.675C63.9219 141.125 64.5719 141.792 65.0386 142.675C65.5219 143.558 65.7636 144.625 65.7636 145.875V154H62.9386V146.3C62.9386 145.067 62.6302 144.125 62.0136 143.475C61.3969 142.808 60.5552 142.475 59.4886 142.475C58.4219 142.475 57.5719 142.808 56.9386 143.475C56.3219 144.125 56.0136 145.067 56.0136 146.3V154H53.1636V135.5H56.0136V141.825C56.4969 141.242 57.1052 140.792 57.8386 140.475C58.5886 140.158 59.4052 140 60.2886 140ZM70.8489 138.4C70.3323 138.4 69.8989 138.225 69.5489 137.875C69.1989 137.525 69.0239 137.092 69.0239 136.575C69.0239 136.058 69.1989 135.625 69.5489 135.275C69.8989 134.925 70.3323 134.75 70.8489 134.75C71.3489 134.75 71.7739 134.925 72.1239 135.275C72.4739 135.625 72.6489 136.058 72.6489 136.575C72.6489 137.092 72.4739 137.525 72.1239 137.875C71.7739 138.225 71.3489 138.4 70.8489 138.4ZM72.2489 140.225V154H69.3989V140.225H72.2489ZM80.9907 154.225C79.9074 154.225 78.9324 154.033 78.0657 153.65C77.2157 153.25 76.5407 152.717 76.0407 152.05C75.5407 151.367 75.2741 150.608 75.2407 149.775H78.1907C78.2407 150.358 78.5157 150.85 79.0157 151.25C79.5324 151.633 80.1741 151.825 80.9407 151.825C81.7407 151.825 82.3574 151.675 82.7907 151.375C83.2407 151.058 83.4657 150.658 83.4657 150.175C83.4657 149.658 83.2157 149.275 82.7157 149.025C82.2324 148.775 81.4574 148.5 80.3907 148.2C79.3574 147.917 78.5157 147.642 77.8657 147.375C77.2157 147.108 76.6491 146.7 76.1657 146.15C75.6991 145.6 75.4657 144.875 75.4657 143.975C75.4657 143.242 75.6824 142.575 76.1157 141.975C76.5491 141.358 77.1657 140.875 77.9657 140.525C78.7824 140.175 79.7157 140 80.7657 140C82.3324 140 83.5907 140.4 84.5407 141.2C85.5074 141.983 86.0241 143.058 86.0907 144.425H83.2407C83.1907 143.808 82.9407 143.317 82.4907 142.95C82.0407 142.583 81.4324 142.4 80.6657 142.4C79.9157 142.4 79.3407 142.542 78.9407 142.825C78.5407 143.108 78.3407 143.483 78.3407 143.95C78.3407 144.317 78.4741 144.625 78.7407 144.875C79.0074 145.125 79.3324 145.325 79.7157 145.475C80.0991 145.608 80.6657 145.783 81.4157 146C82.4157 146.267 83.2324 146.542 83.8657 146.825C84.5157 147.092 85.0741 147.492 85.5407 148.025C86.0074 148.558 86.2491 149.267 86.2657 150.15C86.2657 150.933 86.0491 151.633 85.6157 152.25C85.1824 152.867 84.5657 153.35 83.7657 153.7C82.9824 154.05 82.0574 154.225 80.9907 154.225ZM92.6702 142.55V150.175C92.6702 150.692 92.7869 151.067 93.0202 151.3C93.2702 151.517 93.6869 151.625 94.2702 151.625H96.0202V154H93.7702C92.4869 154 91.5035 153.7 90.8202 153.1C90.1369 152.5 89.7952 151.525 89.7952 150.175V142.55H88.1702V140.225H89.7952V136.8H92.6702V140.225H96.0202V142.55H92.6702ZM101.497 135.5V154H98.647V135.5H101.497ZM117.864 146.775C117.864 147.292 117.83 147.758 117.764 148.175H107.239C107.322 149.275 107.73 150.158 108.464 150.825C109.197 151.492 110.097 151.825 111.164 151.825C112.697 151.825 113.78 151.183 114.414 149.9H117.489C117.072 151.167 116.314 152.208 115.214 153.025C114.13 153.825 112.78 154.225 111.164 154.225C109.847 154.225 108.664 153.933 107.614 153.35C106.58 152.75 105.764 151.917 105.164 150.85C104.58 149.767 104.289 148.517 104.289 147.1C104.289 145.683 104.572 144.442 105.139 143.375C105.722 142.292 106.53 141.458 107.564 140.875C108.614 140.292 109.814 140 111.164 140C112.464 140 113.622 140.283 114.639 140.85C115.655 141.417 116.447 142.217 117.014 143.25C117.58 144.267 117.864 145.442 117.864 146.775ZM114.889 145.875C114.872 144.825 114.497 143.983 113.764 143.35C113.03 142.717 112.122 142.4 111.039 142.4C110.055 142.4 109.214 142.717 108.514 143.35C107.814 143.967 107.397 144.808 107.264 145.875H114.889ZM123.518 136.625V154H120.668V136.625H123.518ZM130.585 142.55V150.175C130.585 150.692 130.702 151.067 130.935 151.3C131.185 151.517 131.602 151.625 132.185 151.625H133.935V154H131.685C130.402 154 129.419 153.7 128.735 153.1C128.052 152.5 127.71 151.525 127.71 150.175V142.55H126.085V140.225H127.71V136.8H130.585V140.225H133.935V142.55H130.585Z" fill="white"/>
<path d="M134.219 44.6875H27.7813C22.9062 37.375 22.9062 27.625 27.7813 20.3125H134.219C139.094 27.625 139.094 37.375 134.219 44.6875Z" stroke="#F7F8F9" stroke-width="2" stroke-miterlimit="10" stroke-linecap="round" stroke-linejoin="round"/>
<path d="M81 109.688C54.1875 109.688 32.25 87.75 32.25 60.9375V44.6875H129.75V60.9375C129.75 87.75 107.812 109.688 81 109.688Z" stroke="#F7F8F9" stroke-width="2" stroke-miterlimit="10" stroke-linecap="round" stroke-linejoin="round"/>
<path d="M81 97.5C92.2183 97.5 101.312 88.4058 101.312 77.1875C101.312 65.9692 92.2183 56.875 81 56.875C69.7817 56.875 60.6875 65.9692 60.6875 77.1875C60.6875 88.4058 69.7817 97.5 81 97.5Z" stroke="#F7F8F9" stroke-width="2" stroke-miterlimit="10" stroke-linecap="round" stroke-linejoin="round"/>
<path d="M105.375 56.875H113.5" stroke="#F7F8F9" stroke-width="2" stroke-miterlimit="10" stroke-linecap="round" stroke-linejoin="round"/>
<path d="M81 81.25C83.2437 81.25 85.0625 79.4312 85.0625 77.1875C85.0625 74.9438 83.2437 73.125 81 73.125C78.7563 73.125 76.9375 74.9438 76.9375 77.1875C76.9375 79.4312 78.7563 81.25 81 81.25Z" stroke="#F7F8F9" stroke-width="2" stroke-miterlimit="10" stroke-linecap="round" stroke-linejoin="round"/>
</svg>
